<svg width="32" height="32" viewBox="0 0 32 32" fill="none" xmlns="http://www.w3.org/2000/svg">
<path d="M15.9329 24C16.3996 24 16.7943 23.8386 17.1169 23.516C17.4396 23.1933 17.6005 22.7991 17.5996 22.3333C17.5996 21.8666 17.4387 21.472 17.1169 21.1493C16.7951 20.8266 16.4005 20.6657 15.9329 20.6666C15.4663 20.6666 15.072 20.828 14.7503 21.1506C14.4285 21.4733 14.2671 21.8675 14.2663 22.3333C14.2663 22.8 14.4276 23.1946 14.7503 23.5173C15.0729 23.84 15.4671 24.0008 15.9329 24ZM14.7329 18.8666H17.1996C17.1996 18.1333 17.2831 17.5555 17.4503 17.1333C17.6174 16.7111 18.0894 16.1333 18.8663 15.4C19.444 14.8222 19.8996 14.272 20.2329 13.7493C20.5663 13.2266 20.7329 12.5991 20.7329 11.8666C20.7329 10.6222 20.2774 9.66663 19.3663 8.99996C18.4551 8.33329 17.3774 7.99996 16.1329 7.99996C14.8663 7.99996 13.8387 8.33329 13.0503 8.99996C12.2618 9.66663 11.7116 10.4666 11.3996 11.4L13.5996 12.2666C13.7107 11.8666 13.9609 11.4333 14.3503 10.9666C14.7396 10.5 15.3338 10.2666 16.1329 10.2666C16.844 10.2666 17.3774 10.4613 17.7329 10.8506C18.0885 11.24 18.2663 11.6675 18.2663 12.1333C18.2663 12.5777 18.1329 12.9946 17.8663 13.384C17.5996 13.7733 17.2663 14.1342 16.8663 14.4666C15.8885 15.3333 15.2885 15.9888 15.0663 16.4333C14.844 16.8777 14.7329 17.6888 14.7329 18.8666ZM15.9996 29.3333C14.1551 29.3333 12.4218 28.9835 10.7996 28.284C9.17737 27.5844 7.76626 26.6342 6.56626 25.4333C5.36626 24.2333 4.41648 22.8222 3.71693 21.2C3.01737 19.5777 2.66715 17.8444 2.66626 16C2.66626 14.1555 3.01648 12.4222 3.71693 10.8C4.41737 9.17774 5.36715 7.76663 6.56626 6.56663C7.76626 5.36663 9.17737 4.41685 10.7996 3.71729C12.4218 3.01774 14.1551 2.66751 15.9996 2.66663C17.844 2.66663 19.5774 3.01685 21.1996 3.71729C22.8218 4.41774 24.2329 5.36751 25.4329 6.56663C26.6329 7.76663 27.5831 9.17774 28.2836 10.8C28.984 12.4222 29.3338 14.1555 29.3329 16C29.3329 17.8444 28.9827 19.5777 28.2823 21.2C27.5818 22.8222 26.632 24.2333 25.4329 25.4333C24.2329 26.6333 22.8218 27.5835 21.1996 28.284C19.5774 28.9844 17.844 29.3342 15.9996 29.3333Z" fill="#838383"/>
</svg>
